<svg xmlns="http://www.w3.org/2000/svg" xmlns:xlink="http://www.w3.org/1999/xlink" viewBox="0 0 400 300" width="406" height="306" class="illustration styles_illustrationTablet__1DWOa"><defs><linearGradient id="linear-gradient" x1="84.78" y1="190.52" x2="138.59" y2="133.4" gradientUnits="userSpaceOnUse"><stop offset="0" stop-opacity="0"></stop><stop offset="1" stop-color="#f15a24"></stop></linearGradient><linearGradient id="linear-gradient-2" x1="223.97" y1="222.18" x2="197.16" y2="255.68" gradientUnits="userSpaceOnUse"><stop offset="0" stop-color="#d4a397"></stop><stop offset="1" stop-color="#fff"></stop></linearGradient><linearGradient id="linear-gradient-3" x1="331.11" y1="181.06" x2="309.1" y2="205.19" xlink:href="#linear-gradient-2"></linearGradient><linearGradient id="linear-gradient-4" x1="143.4" y1="166.08" x2="232.13" y2="77.35" xlink:href="#linear-gradient"></linearGradient></defs><title>PP</title><g style="isolation: isolate;"><g id="Layer_2" data-name="Layer 2"><path d="M193.54,285.63,21,183.68c-5.49-3.08-10.2-8.15-4.85-11.46L189.32,72.44c2.6-1.61,6.54-2.66,9.18-1.13L379.57,176.4c5.49,3.19,6.48,12.1,1,15.29L216.28,285.46A22.94,22.94,0,0,1,193.54,285.63Z" fill="#ffd636"></path><polyline points="86.33 158.92 37.52 189.06 85.95 215.56 145.96 177.21 150.44 163.77 126.77 156.57" fill="url(#linear-gradient)"></polyline><polyline points="89.8 192.66 133.64 164.43 134.05 103.8 125.45 66.19 75.43 93.12 64.75 117.26 64.75 178.24 88.85 192.12" fill="#68e1fd"></polyline><polygon points="64.75 117.26 89.8 133.02 89.8 192.66 64.48 178.24 64.75 117.26" opacity="0.61"></polygon><polygon points="89.8 133.02 75.43 93.12 64.75 117.26 89.8 133.02" opacity="0.61"></polygon><g opacity="0.61"><path d="M101.67,141.25a1.69,1.69,0,0,1,1.74-.2,2.15,2.15,0,0,1,.82,1.68l-1.44.81a.83.83,0,0,0-.45-.6.86.86,0,0,0-.77.12,2.5,2.5,0,0,0-1,1.16,4.92,4.92,0,0,0-.43,1.87,2.27,2.27,0,0,0,.3,1.47c.23.27.54.29.94.07a2.34,2.34,0,0,0,.79-.76,3.84,3.84,0,0,0,.52-1.14l1.44-.81a7.74,7.74,0,0,1-1,2.69,5,5,0,0,1-1.8,1.82,1.88,1.88,0,0,1-1.42.29,1.4,1.4,0,0,1-.9-.92,4.67,4.67,0,0,1-.26-1.93,8.24,8.24,0,0,1,.42-2.32,7,7,0,0,1,1-2A4.59,4.59,0,0,1,101.67,141.25Z"></path><path d="M110.16,138.37a4.16,4.16,0,0,1,.29,1.91,8,8,0,0,1-.46,2.35,7.79,7.79,0,0,1-1.08,2,4.8,4.8,0,0,1-1.45,1.33,1.91,1.91,0,0,1-1.41.28,1.49,1.49,0,0,1-1-.9,4.17,4.17,0,0,1-.29-1.92,7.62,7.62,0,0,1,.46-2.33,7.79,7.79,0,0,1,1.08-2,4.8,4.8,0,0,1,1.45-1.33,1.9,1.9,0,0,1,1.42-.29A1.49,1.49,0,0,1,110.16,138.37Zm-1.55,4.6a4.64,4.64,0,0,0,.46-1.91,2.08,2.08,0,0,0-.32-1.46c-.25-.27-.59-.28-1,0a2.73,2.73,0,0,0-1.08,1.22,4.69,4.69,0,0,0-.46,1.91,2.09,2.09,0,0,0,.33,1.46c.24.27.59.27,1,0a2.75,2.75,0,0,0,1.08-1.22"></path><polygon points="115.02 133.8 114.96 135.34 112.66 136.64 112.59 138.41 114.37 137.4 114.31 138.88 112.53 139.88 112.41 143.13 111.05 143.9 111.36 135.86 115.02 133.8"></polygon><polygon points="119.36 131.34 119.31 132.89 117.01 134.18 116.94 135.95 118.71 134.95 118.66 136.42 116.88 137.42 116.75 140.68 115.4 141.44 115.72 133.4 119.36 131.34"></polygon><polygon points="123.55 128.98 123.49 130.52 121.36 131.72 121.3 133.41 123.19 132.34 123.13 133.81 121.24 134.88 121.17 136.66 123.3 135.46 123.24 137.01 119.75 138.99 120.06 130.95 123.55 128.98"></polygon><polygon points="127.81 126.58 127.75 128.12 125.62 129.32 125.55 131.01 127.44 129.94 127.39 131.41 125.49 132.47 125.42 134.26 127.55 133.05 127.49 134.61 124.01 136.58 124.32 128.54 127.81 126.58"></polygon></g><g opacity="0.61"><path d="M100.46,133.11h0q2.9-1.53,5.7-3.1Z"></path><polygon points="95.93 134.23 95.93 137.47 129.36 119.37 129.36 116.13 95.93 134.23"></polygon></g><g opacity="0.61"><path d="M100.73,156.58h0q2.9-1.53,5.7-3.1Z"></path><polygon points="96.2 157.71 96.2 160.95 129.64 142.84 129.64 139.6 96.2 157.71"></polygon></g><path d="M194.87,228.08l-30,17.48s1.67,25.51,32.46,21.56l55.48-30.38" fill="url(#linear-gradient-2)" style="mix-blend-mode: multiply;"></path><ellipse cx="228.31" cy="225.46" rx="33.44" ry="16.54" fill="#f3a71c"></ellipse><path d="M261.75,181.42v45s-24.9,23-66.88.37V181.42" fill="#f3a71c"></path><path d="M199.87,197.48s-5.54-8.48-10.76-3.59-.65,21.84,14.67,23.47v6.85s-19.23-2.61-21.84-19.88,9.78-19.94,16-15.18" fill="#f3a71c"></path><ellipse cx="228.31" cy="181.61" rx="33.44" ry="16.54" fill="#68e1fd"></ellipse><ellipse cx="228.31" cy="181.61" rx="33.44" ry="16.54" fill="#663535"></ellipse><path d="M316.21,178.91l-21.93,13s6.8,11.92,23.54,19l25.55-13.74" fill="url(#linear-gradient-3)" style="mix-blend-mode: multiply;"></path><ellipse cx="334.51" cy="183.84" rx="20.35" ry="14.33" fill="#68e1fd"></ellipse><ellipse cx="334.5" cy="175.37" rx="15.24" ry="6.24" fill="#974c26"></ellipse><path d="M333.93,165c0-2.82-.1-5.63-.32-8.44q-.09-1.09-.2-2.18c0-.12-.12-1-.16-1.44s-.23-1.5-.22-1.46q-.14-.86-.3-1.71a67.18,67.18,0,0,0-10.88-26.6,38.9,38.9,0,0,0-3,15.58c0,1.55.12,3.08.25,4.62,0,.41,0,.59.05.65s0-.09.07.26c.13.76.26,1.51.42,2.27A61.49,61.49,0,0,0,322,155a51.35,51.35,0,0,0,3.29,7.36c1.38,2.66,2.89,5.25,4.5,7.77,1.26,2,2.46,3.75,3.66,5.42C333.76,172,333.93,168.49,333.93,165Zm-8-31.63a2.53,2.53,0,0,0-.07-1.09h0q.59.6,1.14,1.22A3.49,3.49,0,0,0,325.93,133.33Z" fill="#999a1c"></path><path d="M339.18,167.14c1.52-2.37,3-4.79,4.29-7.27q.52-1,1-1.94l.64-1.3.61-1.35q.34-.8.67-1.6a67.18,67.18,0,0,0,5.23-28.26,38.9,38.9,0,0,0-11,11.47c-.83,1.31-1.57,2.66-2.29,4l-.31.58s.06-.07-.08.26c-.3.71-.6,1.42-.87,2.13a61.49,61.49,0,0,0-2.54,8.41,51.35,51.35,0,0,0-1.21,8c-.28,3-.4,6-.41,9,0,2.34,0,4.48.15,6.54C335.23,173,337.27,170.1,339.18,167.14Zm10.37-30.94a2.53,2.53,0,0,0,.53-1h0q.17.82.3,1.65A3.49,3.49,0,0,0,349.55,136.2Z" fill="#999a1c"></path><path d="M339.07,174.16q2.38-1.18,4.66-2.54l1.17-.72.76-.49.76-.53.88-.65a42.25,42.25,0,0,0,11.95-13.57,24.47,24.47,0,0,0-9.62,2.65c-.87.44-1.7.93-2.53,1.44l-.35.21s.05,0-.13.11c-.39.28-.78.57-1.16.87a38.67,38.67,0,0,0-4.08,3.72,32.29,32.29,0,0,0-3.23,3.91c-1.11,1.52-2.15,3.1-3.12,4.71-.76,1.26-1.42,2.43-2,3.58C335.05,176,337.08,175.14,339.07,174.16Zm15.58-13.35a1.59,1.59,0,0,0,.6-.35h0q-.17.5-.37,1A2.19,2.19,0,0,0,354.65,160.8Z" fill="#999a1c"></path><path d="M333.93,165c0-2.82-.1-5.63-.32-8.44q-.09-1.09-.2-2.18c0-.12-.12-1-.16-1.44s-.23-1.5-.22-1.46q-.14-.86-.3-1.71a67.18,67.18,0,0,0-10.88-26.6,38.9,38.9,0,0,0-3,15.58c0,1.55.12,3.08.25,4.62,0,.41,0,.59.05.65s0-.09.07.26c.13.76.26,1.51.42,2.27A61.49,61.49,0,0,0,322,155a51.35,51.35,0,0,0,3.29,7.36c1.38,2.66,2.89,5.25,4.5,7.77,1.26,2,2.46,3.75,3.66,5.42C333.76,172,333.93,168.49,333.93,165Zm-8-31.63a2.53,2.53,0,0,0-.07-1.09h0q.59.6,1.14,1.22A3.49,3.49,0,0,0,325.93,133.33Z" fill="#999a1c"></path><path d="M339.18,167.14c1.52-2.37,3-4.79,4.29-7.27q.52-1,1-1.94l.64-1.3.61-1.35q.34-.8.67-1.6a67.18,67.18,0,0,0,5.23-28.26,38.9,38.9,0,0,0-11,11.47c-.83,1.31-1.57,2.66-2.29,4l-.31.58s.06-.07-.08.26c-.3.71-.6,1.42-.87,2.13a61.49,61.49,0,0,0-2.54,8.41,51.35,51.35,0,0,0-1.21,8c-.28,3-.4,6-.41,9,0,2.34,0,4.48.15,6.54C335.23,173,337.27,170.1,339.18,167.14Zm10.37-30.94a2.53,2.53,0,0,0,.53-1h0q.17.82.3,1.65A3.49,3.49,0,0,0,349.55,136.2Z" fill="#999a1c"></path><path d="M339.07,174.16q2.38-1.18,4.66-2.54l1.17-.72.76-.49.76-.53.88-.65a42.25,42.25,0,0,0,11.95-13.57,24.47,24.47,0,0,0-9.62,2.65c-.87.44-1.7.93-2.53,1.44l-.35.21s.05,0-.13.11c-.39.28-.78.57-1.16.87a38.67,38.67,0,0,0-4.08,3.72,32.29,32.29,0,0,0-3.23,3.91c-1.11,1.52-2.15,3.1-3.12,4.71-.76,1.26-1.42,2.43-2,3.58C335.05,176,337.08,175.14,339.07,174.16Zm15.58-13.35a1.59,1.59,0,0,0,.6-.35h0q-.17.5-.37,1A2.19,2.19,0,0,0,354.65,160.8Z" fill="#999a1c"></path><polyline points="150.55 118.88 104.81 149.26 165.68 177.38 226.78 138.09" fill="url(#linear-gradient-4)"></polyline><polyline points="145.23 121.56 145.23 126.85 197.9 156.57 226.78 138.09 226.78 133.36" fill="#a67b59"></polyline><path d="M182.16,107.1l44.62,26.27-29.09,18.71-52.46-30.52s14.95-9.14,16-10l12.91-8.37" fill="#e0c3a5"></path><path d="M171.49,114.33V56.25s0-13.2,15.74-14.37l36.5,18.58V76.81L210,84.19,191.42,78.1v47.58Z" fill="#e0c3a5"></path><ellipse cx="208.94" cy="37.23" rx="27.16" ry="15.33" fill="#e6e6e6"></ellipse><path d="M235.15,41.26,213.8,59.75h-7.46S189.78,48,184.85,44.3" fill="#e6e6e6"></path><ellipse cx="208.94" cy="38.35" rx="22.8" ry="12.75" fill="#824434"></ellipse><polygon points="203.97 80.66 203.97 119.87 191.42 125.68 191.42 78.1 203.97 80.66" fill="#a67b59"></polygon><path d="M211.5,79.13v8.54s1.58,1.71,4.6,0V79.13Z" fill="#e0c3a5"></path><path d="M199.58,115.63s5,17.42,5.16,17.68,4.38,5.72,14.41,1.15l4.58-17.82" fill="#8cc63f"></path><ellipse cx="211.99" cy="115.63" rx="12.41" ry="5.14" fill="#527717"></ellipse><path d="M150.42,162.3h0L139.93,155s-4.93,4.21,0,9.27c3.26,3.34,9.3,2,10,.44C150,163.85,150.29,163.17,150.42,162.3Z" fill="#4a2316"></path><path d="M150.44,163.77c.47-1.79-.66-4.35-1.48-5.63-2.53-4-7.22-4.21-9-3.13s-1.93,3.73-1.08,5.66c1.15,2.63,4.36,4.65,7.11,5a5.73,5.73,0,0,0,3.13-.31A2.36,2.36,0,0,0,150.44,163.77Z" fill="#ac7149"></path><path d="M149.81,164.83l.09-.12-1.52-2.31a16.62,16.62,0,0,0-1.68-2.8c-.45-.34-2.74,0-3-.67a12,12,0,0,0-1.57-2.24l-2.72-1.31,2.32,2,.73,2,2.91.78,1.74,1.79,1.06,1.62Z" fill="#4a2316"></path><path d="M127.86,168.59h0l5.68-11.44s6.35,1.32,4.46,8.12c-1.25,4.5-7.19,6.22-8.52,5.18C129,169.75,128.38,169.29,127.86,168.59Z" fill="#4a2316"></path><path d="M128.54,169.89c-1.28-1.34-1.51-4.13-1.42-5.65.3-4.7,4.3-7.17,6.41-7.09s3.48,2.34,3.67,4.44c.26,2.86-1.58,6.17-3.81,7.82a5.73,5.73,0,0,1-2.9,1.24A2.36,2.36,0,0,1,128.54,169.89Z" fill="#ac7149"></path><path d="M129.61,170.51l-.13-.06.22-2.75a16.62,16.62,0,0,1,.12-3.26c.23-.51,2.41-1.32,2.28-2a12,12,0,0,1,.3-2.72l1.75-2.46-1.08,2.86.31,2.07-2.18,2.09-.66,2.41-.15,1.94Z" fill="#4a2316"></path><path d="M146,177.21h0l-5.68-11.44s-6.35,1.32-4.46,8.12c1.25,4.5,7.19,6.22,8.52,5.18C144.86,178.37,145.43,177.91,146,177.21Z" fill="#4a2316"></path><path d="M145.27,178.5c1.28-1.34,1.51-4.13,1.42-5.65-.3-4.7-4.3-7.17-6.41-7.09s-3.48,2.34-3.67,4.44c-.26,2.86,1.58,6.17,3.81,7.82a5.73,5.73,0,0,0,2.9,1.24A2.36,2.36,0,0,0,145.27,178.5Z" fill="#ac7149"></path><path d="M144.21,179.13l.13-.06-.22-2.75a16.62,16.62,0,0,0-.12-3.26c-.23-.51-2.41-1.32-2.28-2a12,12,0,0,0-.3-2.72l-1.75-2.46,1.08,2.86-.31,2.07,2.18,2.09.66,2.41.15,1.94Z" fill="#4a2316"></path><path d="M211.5,87.67s-2.77,3.41-.83,5.61,2,3.9,1,7.14-2.15,7.62,1.22,8.53,2.59-6.22,2.33-8.29.26,1.29,2.33.39,1.68-3.76,0-6.6a13.64,13.64,0,0,1-1.44-6.77" fill="#5c2d1d"></path><polygon points="171.49 114.33 162.86 110.49 171.49 104.89 171.49 114.33" fill="#a67b59"></polygon><path d="M220.86,173.2c.69-2.36,1.69-4.66.95-7.15-.63-2.11-2.21-3.81-3.72-5.42.57,2.52,1.38,7.52,0,11.7-1.56,4.83,1.32,6.26,2.37,6.6A10,10,0,0,1,220.86,173.2Z" fill="#fff"></path><path d="M230.7,168.9c.69-2.36,1.69-4.66.95-7.15-.63-2.11-2.21-3.81-3.72-5.42.57,2.52,1.38,7.52,0,11.7-1.56,4.83,1.32,6.26,2.37,6.6A10,10,0,0,1,230.7,168.9Z" fill="#fff"></path><path d="M241.35,175c.69-2.36,1.69-4.66.95-7.15-.63-2.11-2.21-3.81-3.72-5.42.57,2.52,1.38,7.52,0,11.7-1.56,4.83,1.32,6.26,2.37,6.6A10,10,0,0,1,241.35,175Z" fill="#fff"></path><path d="M228.89,42.84s-4.22-4.45-7.25.64S229.27,46.22,228.89,42.84Z" fill="#3f170d"></path><path d="M206.49,43.87s-4.22-4.45-7.25.64S206.87,47.25,206.49,43.87Z" fill="#3f170d"></path><path d="M194.66,37s-4.1,4.56,1.21,7.17S198,36.31,194.66,37Z" fill="#3f170d"></path><path d="M211.64,39.95s-4.1,4.56,1.21,7.17S215,39.3,211.64,39.95Z" fill="#3f170d"></path><path d="M202.59,27.43s-.84,6.07,5,5.27S205,25,202.59,27.43Z" fill="#3f170d"></path><path d="M215.58,31.74s-4.1,4.56,1.21,7.17S218.92,31.09,215.58,31.74Z" fill="#3f170d"></path><path d="M199.19,31.36s-4.1,4.56,1.21,7.17S202.53,30.71,199.19,31.36Z" fill="#3f170d"></path><path d="M213.52,35.75s-4.22-4.45-7.25.64S213.9,39.13,213.52,35.75Z" fill="#3f170d"></path><path d="M223.58,30.17s-4.1,4.56,1.21,7.17S226.92,29.52,223.58,30.17Z" fill="#3f170d"></path><path d="M191.93,31.87s-2.36,2.62.7,4.13S193.86,31.5,191.93,31.87Z" fill="#3f170d"></path></g></g></svg>