<svg id="Layer_1" data-name="Layer 1" xmlns="http://www.w3.org/2000/svg" xmlns:xlink="http://www.w3.org/1999/xlink" viewBox="0 0 400 300" width="406" height="306" class="illustration styles_illustrationTablet__1DWOa"><defs><linearGradient id="linear-gradient" x1="80.82" y1="195.14" x2="110.9" y2="137.94" gradientUnits="userSpaceOnUse"><stop offset="0" stop-opacity="0"></stop><stop offset="1" stop-color="#f15a24"></stop></linearGradient><linearGradient id="linear-gradient-2" x1="129.07" y1="180.03" x2="217.8" y2="91.29" xlink:href="#linear-gradient"></linearGradient><linearGradient id="linear-gradient-3" x1="250.29" y1="206.25" x2="318.54" y2="137.99" xlink:href="#linear-gradient"></linearGradient><linearGradient id="linear-gradient-4" x1="161" y1="258.81" x2="213.28" y2="206.54" xlink:href="#linear-gradient"></linearGradient></defs><title>1</title><path d="M53.21,183.26l157.3-89.84a24.51,24.51,0,0,1,24.47.09L362.1,167.36a9.27,9.27,0,0,1,0,16L207.81,274.07a24,24,0,0,1-24.11.13L53.2,199.35A9.27,9.27,0,0,1,53.21,183.26Z" fill="#fd8968"></path><polyline points="72 172.87 32.6 194.2 88.25 219.45 131.63 191.16 136.12 177.72 112.44 170.52" fill="url(#linear-gradient)"></polyline><polyline points="136.23 132.82 90.49 163.21 151.36 191.33 212.46 152.04" fill="url(#linear-gradient-2)"></polyline><polyline points="312.3 182.6 248.47 219.45 222.74 195.44 262.14 174.1 281.75 163.21 312.3 182.6" fill="url(#linear-gradient-3)"></polyline><polyline points="130.91 135.5 130.91 140.8 183.57 170.52 212.46 152.04 212.46 147.31" fill="#a67b59"></polyline><path d="M167.83,121l44.62,26.27L183.37,166,130.91,135.5s14.95-9.14,16-10l12.91-8.37" fill="#e0c3a5"></path><polyline points="89.24 198.81 130.74 172.08 131.13 114.69 122.98 79.09 75.64 104.58 65.53 127.43 65.53 185.16 88.34 198.29" fill="#68e1fd"></polyline><path d="M157.17,128.28V70.2s0-13.2,15.74-14.37l36.5,18.58V90.75l-13.76,7.38L177.1,92v47.58Z" fill="#e0c3a5"></path><ellipse cx="194.62" cy="51.18" rx="27.16" ry="15.33" fill="#e6e6e6"></ellipse><path d="M220.82,55.21,199.48,73.7H192S175.46,62,170.52,58.25" fill="#e6e6e6"></path><ellipse cx="194.62" cy="52.3" rx="22.8" ry="12.75" fill="#824434"></ellipse><polygon points="189.65 94.61 189.65 133.82 177.1 139.63 177.1 92.05 189.65 94.61" fill="#a67b59"></polygon><path d="M197.18,93.07v8.54s1.58,1.71,4.6,0V93.07Z" fill="#e0c3a5"></path><path d="M185.25,129.58s5,17.42,5.16,17.68,4.38,5.72,14.41,1.15l4.58-17.82" fill="#8cc63f"></path><ellipse cx="197.66" cy="129.58" rx="12.41" ry="5.14" fill="#527717"></ellipse><path d="M136.09,176.25h0L125.61,169s-4.93,4.21,0,9.27c3.26,3.34,9.3,2,10,.44C135.69,177.79,136,177.11,136.09,176.25Z" fill="#4a2316"></path><path d="M136.11,177.71c.47-1.79-.66-4.35-1.48-5.63-2.53-4-7.22-4.21-9-3.13s-1.93,3.73-1.08,5.66c1.15,2.63,4.36,4.65,7.11,5a5.73,5.73,0,0,0,3.13-.31A2.36,2.36,0,0,0,136.11,177.71Z" fill="#ac7149"></path><path d="M135.48,178.77l.09-.12-1.52-2.31a16.62,16.62,0,0,0-1.68-2.8c-.45-.34-2.74,0-3-.67a12,12,0,0,0-1.57-2.24l-2.72-1.31,2.32,2,.73,2,2.91.78,1.74,1.79,1.06,1.62Z" fill="#4a2316"></path><path d="M113.54,182.54h0l5.68-11.44s6.35,1.32,4.46,8.12c-1.25,4.5-7.19,6.22-8.52,5.18C114.63,183.7,114.06,183.24,113.54,182.54Z" fill="#4a2316"></path><path d="M114.22,183.83c-1.28-1.34-1.51-4.13-1.42-5.65.3-4.7,4.3-7.17,6.41-7.09s3.48,2.34,3.67,4.44c.26,2.86-1.58,6.17-3.81,7.82a5.73,5.73,0,0,1-2.9,1.24A2.36,2.36,0,0,1,114.22,183.83Z" fill="#ac7149"></path><path d="M115.28,184.46l-.13-.06.22-2.75a16.62,16.62,0,0,1,.12-3.26c.23-.51,2.41-1.32,2.28-2a12,12,0,0,1,.3-2.72l1.75-2.46L118.73,174l.31,2.07-2.18,2.09-.66,2.41-.15,1.94Z" fill="#4a2316"></path><path d="M131.63,191.15h0L126,179.71s-6.35,1.32-4.46,8.12c1.25,4.5,7.19,6.22,8.52,5.18C130.54,192.32,131.11,191.85,131.63,191.15Z" fill="#4a2316"></path><path d="M130.95,192.45c1.28-1.34,1.51-4.13,1.42-5.65-.3-4.7-4.3-7.17-6.41-7.09s-3.48,2.34-3.67,4.44c-.26,2.86,1.58,6.17,3.81,7.82a5.73,5.73,0,0,0,2.9,1.24A2.36,2.36,0,0,0,130.95,192.45Z" fill="#ac7149"></path><path d="M129.89,193.07,130,193l-.22-2.75a16.62,16.62,0,0,0-.12-3.26c-.23-.51-2.41-1.32-2.28-2a12,12,0,0,0-.3-2.72l-1.75-2.46,1.08,2.86-.31,2.07,2.18,2.09.66,2.41.15,1.94Z" fill="#4a2316"></path><polygon points="65.53 127.43 89.24 142.35 89.24 198.81 65.27 185.16 65.53 127.43" opacity="0.61"></polygon><polygon points="89.24 142.35 75.64 104.58 65.53 127.43 89.24 142.35" opacity="0.61"></polygon><polygon points="98.33 144.23 124.58 129.35 124.58 166.05 98.33 181.44 98.33 144.23" fill="#fff"></polygon><polyline points="292.01 157.54 292.01 193.2 294.65 193.2 295.22 156.62" fill="#895851"></polyline><polyline points="307.02 143.82 312.3 182.6 309.66 182.6 304.14 145.26" fill="#895851"></polyline><path d="M253.71,170.93s-2.46,8.07-3,8.89-8.61,6.15-8.48,7.79,3.18,2.32,5.08,2.19,12.83-4.7,13.52-6,.68-12.83.68-12.83Z" fill="#5c2d1d"></path><path d="M266.67,180.37s-2.46,8.07-3,8.89-8.61,6.15-8.48,7.79,3.18,2.32,5.08,2.19,12.83-4.7,13.52-6,.68-12.83.68-12.83Z" fill="#5c2d1d"></path><path d="M308.45,107c-.7,2-4.65,31.7-4.65,31.7l-4-1.33L305,106.8" fill="#895851"></path><polyline points="307.02 143.82 307.09 139.03 302.85 140.48 304.14 145.26" fill="#a9cbf8"></polyline><path d="M297.43,136.4s10.65,4.09,9.58,8.11-9.57,13.87-15,13-12.09-5.59-12.09-5.59" fill="#a9cbf8"></path><path d="M297.43,131.51s10.65,4.09,9.58,8.11-9.57,13.87-15,13-12.09-5.59-12.09-5.59" fill="#cbe3ff"></path><path d="M301.65,94.16s10.29,2.57,11.33,8.49,1.34,16.84-13.26,12.6S292,100,292,100" fill="#cbe3ff"></path><path d="M276.74,117.75S255.68,132.2,253,139.56s-4.5,36.35-4.5,36.35,7.37,4.58,15.94,1.88l6.45-32.85s15.31-6.54,18-14.72-.94-23.43-.94-23.43" fill="#895851"></path><path d="M288.54,126.21S267.48,140.66,264.76,148s-4.5,36.35-4.5,36.35,7.37,4.58,15.94,1.88l6.45-32.85s15.31-6.54,18-14.72-.94-23.43-.94-23.43" fill="#895851"></path><path d="M296.9,126.51c3.59-8.74,6.84-34.09,4.67-36.88-2.54-3.27-17-8.61-17-8.61a10.75,10.75,0,0,0-9.87,2.25c-3.52,3-1,26.14,0,37.76C280.82,126.71,288.08,128.11,296.9,126.51Z" fill="#8cc63f"></path><path d="M298.3,70.95c-.73-3.22-3.29-4.35-6.18-4.41a6.21,6.21,0,0,0-1.88-1.41,6.72,6.72,0,0,0-7.08.72,4.56,4.56,0,0,0-2.28-.19c-2.27.43-3,2.6-2.93,4.65,0,.08,0,.16,0,.24-.52,3.49,2.53,5.65,2.53,5.65l9.65,7.7a8,8,0,0,0,3.45-2.08,4.26,4.26,0,0,0,.75-1.33,1.68,1.68,0,0,0,.26-.17C297.28,78.11,299.09,74.48,298.3,70.95Z" fill="#895851"></path><path d="M280.81,73.41c0,1.21-.38,12.58,4.76,12.72s7-7.08,7-7.08-4.22-2.17-4.22-3.92.34-2.45-1.76-3.37S280.76,71.39,280.81,73.41Z" fill="#ffe0ce"></path><path d="M277.9,81.37s-16.15,6.78-18.67,18.54c-3.5,16.3,17.56-.78,17.56-.78" fill="#8cc63f"></path><path d="M275.17,85.29s-1.95,6.17,4.34,6.8,5.4-6,5.4-6" fill="#e4f1ff"></path><ellipse cx="280.04" cy="85.69" rx="2.82" ry="4.89" transform="translate(171.49 357.69) rotate(-85.26)" fill="#350011"></ellipse><path d="M282.65,93.34s.46,3.7-1.69,4.38a17.69,17.69,0,0,0-4.76,2.89l-2,15.71-1.15-14.94,1.38-6.66Z" fill="#527717"></path><path d="M266.71,93.34s6.24-8.67,7.18-8.06c2.06,1.36-.1,4.7-.1,4.7s8.65.17,8.87,3.36-11.06,1.91-11.06,1.91l-3,2.13" fill="#ffd8c6"></path><path d="M267.7,89.52c-1.3-.3-20.41,14.41-12.43,20,7.8,5.45,20.93-11.76,20.93-11.76S273.25,90.81,267.7,89.52Z" fill="#8cc63f"></path><path d="M281.81,129.12c-3.79,3.78-7.85,7.43-11.38,11.46-3.06,3.5-4.27,7.95-5.46,12.35-2.77,10.26-4,20.85-5.23,31.38-.07.64.93.63,1,0,1.18-10.13,2.38-20.31,5-30.2,1.26-4.85,2.53-9.67,6-13.44s7.21-7.24,10.82-10.84A.5.5,0,0,0,281.81,129.12Z" fill="#5c2d1d"></path><path d="M273.79,127.95s-10.22,2.45-9.88,3.38,3.69,0,3.69,0-6.85,2.86-5.45,5.7c.91,1.84,7.41.59,9.17,0s6.58-5.28,6.58-5.28Z" fill="#ffd8c6"></path><path d="M292,100s-2.2,15.9-3.87,18-19,9.77-19,9.77,5.65,2.54,5.52,8.54c0,0,21.8-5.44,24-10.45s8.51-30.2,2.94-36.32S292,100,292,100Z" fill="#8cc63f"></path><path d="M197.18,101.61s-2.77,3.41-.83,5.61,2,3.9,1,7.14-2.15,7.62,1.22,8.53,2.59-6.22,2.33-8.29.26,1.29,2.33.39,1.68-3.76,0-6.6a13.64,13.64,0,0,1-1.44-6.77" fill="#5c2d1d"></path><path d="M214.17,57.09s-4.22-4.45-7.25.64S214.55,60.47,214.17,57.09Z" fill="#3f170d"></path><path d="M191.77,58.12s-4.22-4.45-7.25.64S192.14,61.5,191.77,58.12Z" fill="#3f170d"></path><path d="M179.94,51.21s-4.1,4.56,1.21,7.17S183.28,50.56,179.94,51.21Z" fill="#3f170d"></path><path d="M196.91,54.2s-4.1,4.56,1.21,7.17S200.25,53.55,196.91,54.2Z" fill="#3f170d"></path><path d="M187.87,41.69s-.84,6.07,5,5.27S190.27,39.28,187.87,41.69Z" fill="#3f170d"></path><path d="M200.86,46s-4.1,4.56,1.21,7.17S204.2,45.34,200.86,46Z" fill="#3f170d"></path><path d="M184.47,45.61s-4.1,4.56,1.21,7.17S187.81,45,184.47,45.61Z" fill="#3f170d"></path><path d="M198.8,50s-4.22-4.45-7.25.64S199.18,53.38,198.8,50Z" fill="#3f170d"></path><path d="M208.86,44.42s-4.1,4.56,1.21,7.17S212.2,43.77,208.86,44.42Z" fill="#3f170d"></path><path d="M177.21,46.12s-2.36,2.62.7,4.13S179.13,45.75,177.21,46.12Z" fill="#3f170d"></path><path d="M178.41,185.81c.88-3,2.17-6,1.22-9.19-.81-2.71-2.84-4.9-4.78-7,.73,3.24,1.77,9.66,0,15-2,6.21,1.69,8,3,8.48C177.2,190.94,177.68,188.33,178.41,185.81Z" fill="#fff"></path><path d="M191.05,180.29c.88-3,2.17-6,1.22-9.19-.81-2.71-2.84-4.9-4.78-7,.73,3.24,1.77,9.66,0,15-2,6.21,1.69,8,3,8.48C189.84,185.42,190.32,182.8,191.05,180.29Z" fill="#fff"></path><polyline points="166.44 230.5 136.23 246.86 172.44 267.74 212.17 244.37" fill="url(#linear-gradient-4)"></polyline><ellipse cx="189.15" cy="204.12" rx="26.08" ry="12.89" fill="#68e1fd"></ellipse><ellipse cx="189.15" cy="238.31" rx="26.08" ry="12.89" fill="#68e1fd"></ellipse><path d="M215.23,204V239s-19.41,18-52.15.29V204" fill="#68e1fd"></path><path d="M167,216.5s-4.32-6.61-8.39-2.8-.51,17,11.44,18.3v5.34s-15-2-17-15.51,7.62-15.55,12.45-11.84" fill="#68e1fd"></path><ellipse cx="189.15" cy="204.12" rx="26.08" ry="12.89" opacity="0.61"></ellipse><polygon points="157.17 128.28 148.54 124.44 157.17 118.84 157.17 128.28" fill="#a67b59"></polygon><path d="M204.73,188.17c.88-3,2.17-6,1.22-9.19-.81-2.71-2.84-4.9-4.78-7,.73,3.24,1.77,9.66,0,15-2,6.21,1.69,8,3,8.48C203.52,193.31,204,190.69,204.73,188.17Z" fill="#fff"></path><path d="M290.89,103.41a65.11,65.11,0,0,1-1.67,8.85c-.73,2.77-1.25,6.1-4,7.52-5.13,2.67-10.75,4.65-16.06,6.94-.59.25-.08,1.12.5.86l10-4.31c2.4-1,6-1.85,7.85-3.82,1.6-1.72,2.09-4.76,2.66-6.93a67.3,67.3,0,0,0,1.71-9.12C292,102.77,291,102.78,290.89,103.41Z" fill="#527717"></path></svg>