<?xml version="1.0" encoding="UTF-8" standalone="no"?> <svg id="flat" xmlns="http://www.w3.org/2000/svg" viewBox="0 0 512 512"><polyline points="416 286 416 456 96 456 96 184 416 184 416 235" style="fill:#39d5ea"/><path d="M120,371.712V219.182A11.182,11.182,0,0,1,131.182,208H416V184H96V456H416V432H180.288A60.288,60.288,0,0,1,120,371.712Z" style="fill:#2bb3ce"/><rect x="208" y="184" width="96" height="64" style="fill:#321a13"/><path d="M69.746,64H442.254A29.746,29.746,0,0,1,472,93.746V192a0,0,0,0,1,0,0H40a0,0,0,0,1,0,0V93.746A29.746,29.746,0,0,1,69.746,64Z" style="fill:#1d5c88"/><path d="M64,448H448a32,32,0,0,1,32,32v0a0,0,0,0,1,0,0H32a0,0,0,0,1,0,0v0a32,32,0,0,1,32-32Z" style="fill:#1d5c88"/><path d="M80,152a24,24,0,1,1,24-24A24.027,24.027,0,0,1,80,152Zm0-32a8,8,0,1,0,8,8A8.009,8.009,0,0,0,80,120Z" style="fill:#fff89b"/><path d="M152,152a24,24,0,1,1,24-24A24.027,24.027,0,0,1,152,152Zm0-32a8,8,0,1,0,8,8A8.009,8.009,0,0,0,152,120Z" style="fill:#fff89b"/><path d="M224,152a24,24,0,1,1,24-24A24.027,24.027,0,0,1,224,152Zm0-32a8,8,0,1,0,8,8A8.009,8.009,0,0,0,224,120Z" style="fill:#fff89b"/><path d="M448,168H416a8,8,0,0,1-8-8V96a8,8,0,0,1,8-8h32a8,8,0,0,1,8,8v64A8,8,0,0,1,448,168Zm-24-16h16V104H424Z" style="fill:#ffbf41"/><path d="M296,120H272a8,8,0,0,1-8-8V88a8,8,0,0,1,8-8h24a8,8,0,0,1,8,8v24A8,8,0,0,1,296,120Zm-16-16h8V96h-8Z" style="fill:#ffd884"/><path d="M296,176H272a8,8,0,0,1-8-8V144a8,8,0,0,1,8-8h24a8,8,0,0,1,8,8v24A8,8,0,0,1,296,176Zm-16-16h8v-8h-8Z" style="fill:#ffd884"/><path d="M344,120H320a8,8,0,0,1-8-8V88a8,8,0,0,1,8-8h24a8,8,0,0,1,8,8v24A8,8,0,0,1,344,120Zm-16-16h8V96h-8Z" style="fill:#ffd884"/><path d="M344,176H320a8,8,0,0,1-8-8V144a8,8,0,0,1,8-8h24a8,8,0,0,1,8,8v24A8,8,0,0,1,344,176Zm-16-16h8v-8h-8Z" style="fill:#ffd884"/><path d="M392,120H368a8,8,0,0,1-8-8V88a8,8,0,0,1,8-8h24a8,8,0,0,1,8,8v24A8,8,0,0,1,392,120Zm-16-16h8V96h-8Z" style="fill:#ffd884"/><path d="M392,176H368a8,8,0,0,1-8-8V144a8,8,0,0,1,8-8h24a8,8,0,0,1,8,8v24A8,8,0,0,1,392,176Zm-16-16h8v-8h-8Z" style="fill:#ffd884"/><rect x="320" y="256" width="40" height="16" style="fill:#321a13"/><rect x="360" y="240" width="128" height="48" rx="19.31" style="fill:#67342c"/><path d="M468.69,272H379.31A19.3,19.3,0,0,1,360.3,256a19.4,19.4,0,0,0-.3,3.31v9.38A19.31,19.31,0,0,0,379.31,288h89.38A19.31,19.31,0,0,0,488,268.69v-9.38a19.4,19.4,0,0,0-.3-3.31A19.3,19.3,0,0,1,468.69,272Z" style="fill:#321a13"/><path d="M344.056,360H327.944A23.844,23.844,0,0,0,312,366.1V360H200v32a56,56,0,0,0,56,56h0a56.006,56.006,0,0,0,55.237-46.814A23.865,23.865,0,0,0,327.944,408h16.112A23.971,23.971,0,0,0,368,384.056v-.112A23.971,23.971,0,0,0,344.056,360ZM352,384.056A7.952,7.952,0,0,1,344.056,392H327.944A7.952,7.952,0,0,1,320,384.056v-.112A7.952,7.952,0,0,1,327.944,376h16.112A7.952,7.952,0,0,1,352,383.944Z" style="fill:#d1e3ee"/><path d="M232,392V360H200v32a56,56,0,0,0,56,56h0a55.96,55.96,0,0,0,16-2.333A56.015,56.015,0,0,1,232,392Z" style="fill:#85bbd6"/><path d="M184,240H328a0,0,0,0,1,0,0v0a64,64,0,0,1-64,64H248a64,64,0,0,1-64-64v0A0,0,0,0,1,184,240Z" style="fill:#d1e3ee"/><path d="M216,240H184a64,64,0,0,0,64,64h16a64.394,64.394,0,0,0,8-.516A64,64,0,0,1,216,240Z" style="fill:#7d8f9f"/></svg>