<?xml version="1.0" encoding="UTF-8" standalone="no"?> <svg width="64" height="64" viewBox="0 0 64 64" fill="none" xmlns="http://www.w3.org/2000/svg">
<path d="M41.68 34.47C41.4457 35.3916 41.0785 36.2742 40.59 37.09L42.61 39.78L39.78 42.61L37.09 40.59C36.2742 41.0785 35.3916 41.4457 34.47 41.68L34 45H30L29.53 41.68C28.6084 41.4457 27.7258 41.0785 26.91 40.59L24.22 42.61L21.39 39.78L23.41 37.09C22.9215 36.2742 22.5543 35.3916 22.32 34.47L19 34V30L22.32 29.53C22.5543 28.6084 22.9215 27.7258 23.41 26.91L21.39 24.22L24.22 21.39L26.91 23.41C27.7258 22.9215 28.6084 22.5543 29.53 22.32L30 19H34L34.47 22.32C35.3916 22.5543 36.2742 22.9215 37.09 23.41L39.78 21.39L42.61 24.22L40.59 26.91C41.0785 27.7258 41.4457 28.6084 41.68 29.53L45 30V34L41.68 34.47Z" fill="#FF9811"/>
<path d="M32 37C34.7614 37 37 34.7614 37 32C37 29.2386 34.7614 27 32 27C29.2386 27 27 29.2386 27 32C27 34.7614 29.2386 37 32 37Z" fill="#FFD422"/>
<path d="M56 38L53.76 35.31C52.9645 40.5114 50.3326 45.256 46.3409 48.6844C42.3493 52.1129 37.2619 53.9986 32 54V51L28.69 53.76L26 56L28.04 57.7L32 61V58C38.2094 57.9987 44.2134 55.7761 48.9269 51.7339C53.6404 47.6917 56.7522 42.0966 57.7 35.96L56 38Z" fill="#00CCB3"/>
<path d="M35.96 6.3L32 3V6C25.7906 6.00125 19.7866 8.22386 15.0731 12.2661C10.3596 16.3083 7.24776 21.9034 6.3 28.04L8 26L10.24 28.69C11.0355 23.4886 13.6674 18.744 17.6591 15.3156C21.6507 11.8871 26.7381 10.0014 32 10V13L35.31 10.24L38 8L35.96 6.3Z" fill="#00CCB3"/>
<path d="M28.69 53.76C23.4886 52.9645 18.744 50.3326 15.3156 46.3409C11.8871 42.3493 10.0014 37.2619 10 32H13L10.24 28.69L8 26L6.3 28.04L3 32H6C6.00125 38.2094 8.22386 44.2134 12.2661 48.9269C16.3083 53.6404 21.9034 56.7522 28.04 57.7L26 56L28.69 53.76Z" fill="#5AAAE7"/>
<path d="M58 32C57.9987 25.7906 55.7761 19.7866 51.7339 15.0731C47.6917 10.3596 42.0966 7.24775 35.96 6.29999L38 7.99999L35.31 10.24C40.5114 11.0355 45.256 13.6674 48.6844 17.659C52.1129 21.6507 53.9986 26.7381 54 32H51L53.76 35.31L56 38L57.7 35.96L61 32H58Z" fill="#5AAAE7"/>
</svg>
