<?xml version="1.0" encoding="UTF-8"?>
<svg xmlns="http://www.w3.org/2000/svg" xmlns:xlink="http://www.w3.org/1999/xlink" width="58px" height="58px" viewBox="0 0 58 58" version="1.1">
    <!-- Generator: Sketch 52.6 (67491) - http://www.bohemiancoding.com/sketch -->
    <title>051 - Location</title>
    <desc>Created with Sketch.</desc>
    <g id="Page-1" stroke="none" stroke-width="1" fill="none" fill-rule="evenodd">
        <g id="051---Location">
            <polygon id="Path" fill="#F3D55B" points="15.23 27.47 7 31 0 58 18.45 50 36.91 58 58 52.67 51 27 42.05 29.24 42.04 29.24"/>
            <path d="M36.91,58 L18.45,50 L19.83,36.49 C22.096591,40.0466233 24.6768794,43.393301 27.54,46.49 C27.91677,46.8963585 28.4458494,47.1273084 29,47.1273084 C29.5541506,47.1273084 30.08323,46.8963585 30.46,46.49 C32.3064026,44.4913792 34.0359437,42.3878833 35.64,40.19 L35.65,40.2 L36.91,58 Z" id="Path" fill="#F0C419"/>
            <path d="M45,16.32 C44.9039827,20.7833665 43.8967021,25.1800102 42.04,29.24 C40.3236492,33.1182504 38.1768408,36.7913053 35.64,40.19 C34.0359437,42.3878833 32.3064026,44.4913792 30.46,46.49 C30.08323,46.8963585 29.5541506,47.1273084 29,47.1273084 C28.4458494,47.1273084 27.91677,46.8963585 27.54,46.49 C24.6768794,43.393301 22.096591,40.0466233 19.83,36.49 C17.9966683,33.6460032 16.4555017,30.6239766 15.23,27.47 C13.815913,23.9195388 13.0602509,20.1412284 13,16.32 C12.9123042,7.39534813 20.0753613,0.0890298232 29,3.55271368e-15 C37.9246387,0.0890298232 45.0876958,7.39534813 45,16.32 Z" id="Path" fill="#E64C3C"/>
            <circle id="Oval" fill="#F5EFCA" cx="29" cy="15" r="7"/>
        </g>
    </g>
</svg>
