<?xml version="1.0" encoding="iso-8859-1"?>
<!-- Generator: Adobe Illustrator 19.0.0, SVG Export Plug-In . SVG Version: 6.00 Build 0)  -->
<svg version="1.1" id="Capa_1" xmlns="http://www.w3.org/2000/svg" xmlns:xlink="http://www.w3.org/1999/xlink" x="0px" y="0px"
	 viewBox="0 0 58 58" style="enable-background:new 0 0 58 58;" xml:space="preserve">
<path style="fill:#CBD4D8;" d="M42.319,58H15.681C13.648,58,12,56.352,12,54.319V3.681C12,1.648,13.648,0,15.681,0h26.637
	C44.352,0,46,1.648,46,3.681v50.637C46,56.352,44.352,58,42.319,58z"/>
<rect x="12" y="6" style="fill:#434C6D;" width="34" height="46"/>
<path style="fill:#839594;" d="M23,4c-0.26,0-0.521-0.11-0.71-0.29C22.109,3.52,22,3.26,22,3s0.109-0.521,0.29-0.71
	c0.38-0.37,1.04-0.37,1.42,0C23.89,2.479,24,2.74,24,3s-0.11,0.52-0.29,0.71C23.52,3.89,23.26,4,23,4z"/>
<path style="fill:#839594;" d="M15,4c-0.271,0-0.521-0.11-0.71-0.29C14.109,3.52,14,3.27,14,3c0-0.271,0.109-0.521,0.29-0.71
	c0.37-0.37,1.04-0.37,1.42,0C15.89,2.479,16,2.74,16,3s-0.11,0.52-0.29,0.71C15.52,3.89,15.26,4,15,4z"/>
<path style="fill:#839594;" d="M43,4c-0.271,0-0.521-0.11-0.71-0.29C42.109,3.52,42,3.26,42,3s0.109-0.521,0.29-0.71
	c0.37-0.37,1.05-0.37,1.42,0C43.89,2.479,44,2.74,44,3s-0.11,0.52-0.29,0.71C43.52,3.89,43.27,4,43,4z"/>
<path style="fill:#839594;" d="M26,4c-0.26,0-0.521-0.11-0.71-0.29C25.109,3.52,25,3.26,25,3s0.109-0.521,0.29-0.71
	c0.37-0.37,1.04-0.37,1.42,0C26.899,2.479,27,2.74,27,3s-0.101,0.52-0.29,0.71C26.52,3.89,26.26,4,26,4z"/>
<path style="fill:#839594;" d="M29,4c-0.26,0-0.521-0.101-0.71-0.29C28.109,3.52,28,3.26,28,3c0-0.271,0.109-0.521,0.29-0.71
	c0.359-0.37,1.05-0.37,1.42,0C29.89,2.479,30,2.74,30,3s-0.11,0.52-0.29,0.71C29.52,3.899,29.26,4,29,4z"/>
<path style="fill:#839594;" d="M32,4c-0.26,0-0.521-0.11-0.71-0.29C31.109,3.52,31,3.26,31,3s0.109-0.521,0.29-0.71
	c0.37-0.37,1.04-0.37,1.42,0C32.89,2.479,33,2.74,33,3s-0.101,0.52-0.29,0.71C32.52,3.89,32.26,4,32,4z"/>
<path style="fill:#839594;" d="M35,4c-0.26,0-0.521-0.11-0.71-0.29C34.109,3.52,34,3.26,34,3c0-0.271,0.109-0.521,0.29-0.71
	c0.38-0.37,1.05-0.37,1.42,0C35.89,2.479,36,2.74,36,3s-0.11,0.52-0.29,0.71C35.52,3.89,35.26,4,35,4z"/>
<g>
	<path style="fill:#839594;" d="M22.29,54.29C22.109,54.479,22,54.74,22,55s0.109,0.52,0.29,0.71C22.479,55.89,22.74,56,23,56
		s0.52-0.11,0.71-0.29C23.89,55.52,24,55.26,24,55c0-0.271-0.11-0.521-0.29-0.71C23.34,53.92,22.66,53.92,22.29,54.29z"/>
	<path style="fill:#839594;" d="M25.29,54.29C25.109,54.479,25,54.74,25,55c0,0.27,0.109,0.52,0.29,0.71
		C25.479,55.89,25.729,56,26,56c0.26,0,0.52-0.11,0.71-0.29C26.89,55.52,27,55.26,27,55s-0.101-0.521-0.29-0.71
		C26.33,53.92,25.66,53.92,25.29,54.29z"/>
	<path style="fill:#839594;" d="M28.29,54.29C28.109,54.479,28,54.74,28,55s0.109,0.52,0.29,0.71C28.479,55.89,28.729,56,29,56
		c0.26,0,0.52-0.11,0.71-0.29C29.89,55.52,30,55.26,30,55s-0.11-0.521-0.29-0.71C29.34,53.92,28.66,53.92,28.29,54.29z"/>
	<path style="fill:#839594;" d="M31.29,54.29C31.109,54.479,31,54.74,31,55s0.109,0.52,0.29,0.71C31.479,55.89,31.74,56,32,56
		s0.52-0.11,0.71-0.29C32.89,55.52,33,55.26,33,55s-0.101-0.521-0.29-0.71C32.33,53.92,31.67,53.92,31.29,54.29z"/>
	<path style="fill:#839594;" d="M35.71,54.3c-0.37-0.38-1.05-0.38-1.42-0.01C34.109,54.479,34,54.74,34,55
		c0,0.27,0.109,0.52,0.29,0.71C34.479,55.89,34.74,56,35,56s0.52-0.11,0.71-0.29C35.89,55.52,36,55.26,36,55
		S35.89,54.479,35.71,54.3z"/>
</g>
<g>
	<path style="fill:#6363AD;" d="M15,14c0.256,0,0.512-0.098,0.707-0.293l4-4c0.391-0.391,0.391-1.023,0-1.414s-1.023-0.391-1.414,0
		l-4,4c-0.391,0.391-0.391,1.023,0,1.414C14.488,13.902,14.744,14,15,14z"/>
	<path style="fill:#6363AD;" d="M15,19c0.256,0,0.512-0.098,0.707-0.293l2-2c0.391-0.391,0.391-1.023,0-1.414s-1.023-0.391-1.414,0
		l-2,2c-0.391,0.391-0.391,1.023,0,1.414C14.488,18.902,14.744,19,15,19z"/>
	<path style="fill:#6363AD;" d="M18.29,13.29C18.109,13.479,18,13.729,18,14c0,0.26,0.109,0.52,0.29,0.71
		C18.479,14.89,18.74,15,19,15s0.52-0.11,0.71-0.29C19.89,14.52,20,14.26,20,14s-0.11-0.521-0.29-0.71
		C19.33,12.92,18.66,12.92,18.29,13.29z"/>
	<path style="fill:#6363AD;" d="M20.293,12.707C20.488,12.902,20.744,13,21,13s0.512-0.098,0.707-0.293l3-3
		c0.391-0.391,0.391-1.023,0-1.414s-1.023-0.391-1.414,0l-3,3C19.902,11.684,19.902,12.316,20.293,12.707z"/>
	<path style="fill:#6363AD;" d="M23.293,13.293l-9,9c-0.391,0.391-0.391,1.023,0,1.414C14.488,23.902,14.744,24,15,24
		s0.512-0.098,0.707-0.293l9-9c0.391-0.391,0.391-1.023,0-1.414S23.684,12.902,23.293,13.293z"/>
	<path style="fill:#6363AD;" d="M25.29,11.29C25.109,11.479,25,11.729,25,12c0,0.26,0.109,0.52,0.29,0.71
		C25.479,12.89,25.74,13,26,13s0.52-0.11,0.71-0.29C26.899,12.52,27,12.26,27,12s-0.11-0.521-0.29-0.71
		C26.33,10.92,25.66,10.92,25.29,11.29z"/>
	<path style="fill:#6363AD;" d="M29.707,8.293c-0.391-0.391-1.023-0.391-1.414,0l-1,1c-0.391,0.391-0.391,1.023,0,1.414
		C27.488,10.902,27.744,11,28,11s0.512-0.098,0.707-0.293l1-1C30.098,9.316,30.098,8.684,29.707,8.293z"/>
</g>
<g>
</g>
<g>
</g>
<g>
</g>
<g>
</g>
<g>
</g>
<g>
</g>
<g>
</g>
<g>
</g>
<g>
</g>
<g>
</g>
<g>
</g>
<g>
</g>
<g>
</g>
<g>
</g>
<g>
</g>
</svg>
