<svg xmlns="http://www.w3.org/2000/svg" xmlns:xlink="http://www.w3.org/1999/xlink" viewBox="0 0 64 64"><defs><style>.cls-1{fill:url(#linear-gradient);}.cls-2{fill:url(#linear-gradient-2);}.cls-3{fill:url(#linear-gradient-3);}.cls-4{fill:url(#linear-gradient-4);}.cls-5{fill:url(#linear-gradient-5);}</style><linearGradient id="linear-gradient" x1="21.84" y1="25.5" x2="46.69" y2="25.5" gradientUnits="userSpaceOnUse"><stop offset="0" stop-color="#d7d8d2"/><stop offset="0.07" stop-color="#d0d1cb"/><stop offset="0.7" stop-color="#99988d"/><stop offset="1" stop-color="#848275"/></linearGradient><linearGradient id="linear-gradient-2" x1="18.35" y1="38.32" x2="27.58" y2="38.32" gradientUnits="userSpaceOnUse"><stop offset="0" stop-color="#141c2c"/><stop offset="0.84" stop-color="#090d14"/><stop offset="1" stop-color="#070a0f"/></linearGradient><linearGradient id="linear-gradient-3" x1="41.95" y1="10.07" x2="53.73" y2="10.07" xlink:href="#linear-gradient"/><linearGradient id="linear-gradient-4" x1="2.97" y1="32" x2="61" y2="32" xlink:href="#linear-gradient"/><linearGradient id="linear-gradient-5" x1="3.01" y1="47.45" x2="26.91" y2="47.45" gradientUnits="userSpaceOnUse"><stop offset="0" stop-color="#edd06d"/><stop offset="0.35" stop-color="#e0b858"/><stop offset="1" stop-color="#c2822a"/></linearGradient></defs><g id="Layer_49" data-name="Layer 49"><path class="cls-1" d="M46.35,14.53c-.62-.53-1.3-.16-1.71.43l-1.08-.08-.22-.9.58-.66A1,1,0,0,0,42.42,12l-12,13.66a1,1,0,0,0-.13,1.12l-3.32,3.7a1,1,0,0,0-1,.29l-3.79,4.29a1,1,0,0,0,0,1.35L24.64,39a1,1,0,0,0,.74.31,1,1,0,0,0,.73-.34L30,34.66A1,1,0,0,0,30,33.43l3.2-3.69a1,1,0,0,0,1.24-.19l12-13.61A1,1,0,0,0,46.35,14.53Z"/><path class="cls-2" d="M27.3,38.93l-4.95-5.18a1.06,1.06,0,0,0-.75-.31,1,1,0,0,0-.73.34L18.6,36.37a1,1,0,0,0,0,1.35l5,5.18a1,1,0,0,0,.74.31,1,1,0,0,0,.73-.34l2.28-2.59A1,1,0,0,0,27.3,38.93Z"/><path class="cls-3" d="M53.45,6.54,51,4a1,1,0,0,0-1.39-.05l-7.32,6.65a1,1,0,0,0-.31.9l.6,3.66a1,1,0,0,0,.84.82l3.37.51a1,1,0,0,0,1-.42l5.79-8.23A1,1,0,0,0,53.45,6.54Z"/><path class="cls-4" d="M58.17,44.55a9.56,9.56,0,0,0-9.75-2.34L21.79,15.58c2.35-6.79-4-13.91-11-12.4A1,1,0,0,0,10,4.26a1.14,1.14,0,0,0,.28.61l4,4L13.1,13.1,8.83,14.24l-4-4a1,1,0,0,0-1.69.51c-1.55,7,5.7,13.41,12.42,11L42.21,48.42c-2.36,6.79,4,13.91,11,12.4A1,1,0,0,0,54,59.74a1.14,1.14,0,0,0-.28-.61l-4-4L50.9,50.9l4.27-1.14,4,4a1.29,1.29,0,0,0,.71.3h0a1,1,0,0,0,1-.81A9.59,9.59,0,0,0,58.17,44.55Z"/><path class="cls-5" d="M26.63,43.2l-8.17-8.54a1,1,0,0,0-1.47,0L4.82,48.5a7.56,7.56,0,0,0-1.21,7.89c1.65,4.42,7.81,5.71,10.88,2L26.66,44.55A1,1,0,0,0,26.63,43.2ZM6.32,49.82l11.45-13L18.93,38,5,53.81A5.44,5.44,0,0,1,6.32,49.82ZM13,57a4.29,4.29,0,0,1-3.57,1.52l14-15.85,1.15,1.2Z"/></g></svg>